<svg xmlns="http://www.w3.org/2000/svg" version="1.1" xmlns:xlink="http://www.w3.org/1999/xlink" xmlns:svgjs="http://svgjs.dev/svgjs" viewBox="0 0 1422 800"><g fill="none" stroke-width="2.5" stroke="#7e5b5d" stroke-linecap="round" stroke-dasharray="150"><path d="M1569.7 381.46C1614.67 407.55 1554.68 425.9 1433.42 437 1332.2 448.5 1315.86 453.87 1388.92 455.17 1501.85 460.11 1577.67 466.06 1568.94 478.21 1479.87 502.03 1359.88 539.83 1272.43 595.46 1258.2 664.31 1316.19 745.71 1406.93 830.45 1482.43 901.39 1499.29 949.05 1449.22 960.17 1350.97 934.59 1243.25 878.5 1163.25 812.24 1132.4 769.38 1153.09 770.72 1207 830.2 1273.11 933.23 1321.67 1047.09 1336.69 1125.24 1314.35 1133.33 1257.97 1070.16 1181.36 972.11 1095.14 905.22 1015.88 915.76 952.33 1011.9 893.59 1185.92 878.28 1064.56 892.24 975.37 907.48 1124.58 903.94 1194.06 884.1 1020.4 868.02 1025.04 846.72 1144.84 820.63 1274.47 794.53 1294.45 764.26 1186.67 729.51 1050.18 694.05 1003.55 652.9 1082.45 605.5 1212.24 556.79 1282.55 501.97 1231.38 442.62 1099.89 385.89 985.5 330.39 968.76 281.87 1050.01 246.94 1164.32 228.61 1222.17 231.63 1182.5 252.33 1067.3 289.99 944.68 335.99 879.53 372.38 898.21 389.92 977.54 374.92 1063.74 322.57 1110.24 238.17 1087.37 137.86 1005.86 49.75 894.6 -3.5 795.31 -3.47 735.73 45.71 725.65 124.37 757.24 195.45 808.82 218.35 864.1 176.21 899.07 77.43 905.15 -36.57 882.7 -115.84 834.84 -120.73 772.19 -52.41 699.12 50.58 627.82 124.93 564.02 118.94 505.07 30.65 456.92 -92.35 417.9 -175.47 383.9 -166.81 355.3 -70.76 329.3 45.33 304.75 102.68 279.97 57.71 253.88 -60.18 227.78 -165.11 200.99 -184.88 174.71 -107.49 149.88 16.05 128.4 106.64 113.18 110.57 102.99 31.77 102.8 -74.5 114.41 -143.25 130.86 -129.41 155.82 -40.87 183.66 77.61 201.08 166.89 204.85 189.68 184.45 142.38 135.53 57.86 58.95 -17.41 -36.53 -48.75 -128.33 -17.44 -198.77 63.84 -226.02 169.05 -203.78 262.76 -140.32 320.63 -63.26 332.9 -15.95 305.06 -25.65 255.33 -102.97 179.22 -274.18 184 -287.58 267.08 -146.99 340.93 -130.59 415.12 -209.71 482.59 -343.15 543.43 -443.53 591.85 -443.78 629.13 -344.11 657.84 -227.35 679.34 -188.64 697.21 -269.02 711.19 -408.89 725.69 -495.46 742.93 -453.99 759.36 -322.66 780.25 -217.53 806.34 -237.51 832.44 -367.14 863.12 -484.29 897.52 -483.77 931.11 -367.13 966.69 -235.08 1001.93 -196.17 1046.69 -340.38 1087.78 -356.22 1071.13 -174.91 1048.88 -144.13 1018.78 -210.82 987.79 -317.58 969.21 -390.45 967.49 -375.7 991.92 -281.64 1044.92 -156.42 1123.53 -64.2 1217.1 -41.47 1304.16 -88.81 1367.84 -170.1 1389.77 -238.92 1366.11 -264.2 1304.96 -229.71 1230.57 -149.51 1180.09 -45.91 1177.84 49.01 1236.35 114.8 1338.8 143.91 1448.6 137.84 1519.18 109.75 1519.67 67.85 1451.65 30.55 1352.29 6.93 1282.88 -3.47 1286.03 5.07 1369.51 28.59 1490.51 63.79 1581.77 106.18 1587.91 150.46 1507.4 198.36 1391.52 243.08 1319.29 282.41 1344.23 322.14 1451.8 355.36 1569.7 381.46Q1569.7 381.46 1569.7 381.46" opacity="0.73"></path><path d="M1533.66 252.26C1578.95 277.11 1528.2 301.41 1415.61 326.1 1310.21 352.12 1274.06 381.06 1323.34 415.35 1426.57 454.05 1518.65 501.26 1546.44 558.32 1494.61 619.41 1388.56 687.31 1280.91 756.95 1219.42 817.27 1227.54 864.76 1291.98 889.73 1379.61 888.47 1443.93 859.63 1455.86 808.98 1409.56 756.77 1320.4 716.76 1219.33 710 1134.37 749.14 1088.92 831.12 1087.4 937.98 1124.03 1033.88 1179.01 1088.28 1231.58 1078.38 1269.47 1013.25 1278.21 924.2 1257.04 861.74 1209.59 869.43 1144.32 952.36 1072.07 1076.09 997.41 1174.67 930.95 1194.95 876.29 1124.57 832.15 1014.58 800.51 940.1 778.27 961.24 758.97 1135.38 733.36 1131.96 714.95 976.37 701.67 996.46 682.87 1115.89 658.01 1238.46 633.16 1260.78 602.85 1164.29 567.72 1030.52 533.07 965.85 494.68 1017.63 454.34 1138.52 416.84 1234.25 380.89 1228.41 350.06 1125.91 320.96 960.95 339.6 1098.83 385.69 1181.08 417.13 1127.68 442.78 1014.9 451.93 901.31 434.79 837.35 389.06 846.48 315.61 910.91 227.48 995.42 138.37 1052.54 69.17 1056.52 38.12 1004.51 52.55 913.61 108.16 813.44 210.63 701.44 179.78 702.85 25.78 764.61 -60.81 802.84 -89.19 823.11 -45.91 823.29 43.51 806.1 133.38 772.83 171.19 729.93 129.37 678.65 25.42 626.3 -87.39 576.89 -146.27 526.41 -117.43 481.77 -16.94 443.75 90.72 405.99 138.95 374.63 93.66 349.77 -52.38 300.31 132.31 292.36 10.51 301.71 -79.67 299.52 -109.52 288.65 -63.57 262.79 37.23 219.54 146.44 157.29 218.26 78.25 227.62 -4.62 178.75 -83.63 101.33 -142.61 28.88 -167.62 -3.35 -153.35 17.01 -102.55 84.58 -37.93 178.61 18.84 272.28 38.28 345.69 1.75 383.21 -86.36 384.69 -200.22 355.3 -294 310.89 -330.83 266.86 -292.76 230.44 -205.06 214.34 -116.36 220.32 -85.1 246.19 -140.4 289.01 -258.83 341.86 -375.46 402.84 -419.52 463.86 -364.87 520.89 -249.37 576.6 -160.87 625.34 -166.87 667.23 -272.16 706.54 -402.66 740.5 -461.79 770.45 -402.07 799.51 -273.22 826.2 -179.21 851.05 -201.48 875.9 -324.04 898.33 -440.98 917.69 -456.19 943.01 -292.05 961.07 -259.79 949.1 -413.99 937.17 -421.12 920.28 -330.48 902.37 -202.27 892.59 -113.66 891.77 -113.67 906.71 -190.07 941.54 -291.64 997.25 -350.5 1071.98 -332.32 1154.32 -243.99 1235.71 -127.26 1300.67 -32.79 1334.74 6.46 1331.35 -16.9 1290.51 -80.23 1197.91 -178.45 1167.12 -125.14 1295.4 3.87 1398.7 92.82 1471.65 161.27 1484.46 203.34 1434.81 219.18 1345.85 213.68 1263.26 196.44 1235.52 169.87 1281.56 146.11 1385.77 130.11 1496.91 118.14 1558.15 116.97 1534.88 125.14 1442.9 137.72 1335.54 156.48 1280.28 178.87 1315.63 202.59 1421.86 227.4 1533.66 252.26Q1533.66 252.26 1533.66 252.26" opacity="0.12"></path><path d="M1496.83 363.66C1542.94 387.27 1501.79 417.24 1399.07 453.36 1292.09 489.61 1238.39 532.01 1262.52 579.65 1349 626.01 1447.22 674.81 1504.95 722.35 1493.95 762.11 1417.31 793.03 1310.54 809.39 1217.49 810.01 1174.98 792.14 1192.95 757.05 1259.09 716.91 1338.95 676.54 1397.71 649.96 1413.84 652.38 1378 688.96 1302.65 761.01 1207.59 853.78 1119.7 949.12 1058.21 1020.01 1032.2 1043.94 1041.58 1014.22 1075.51 942 1124.39 863.9 1170.03 815.27 1201.17 828.26 1214.48 906.43 1204.31 1021.45 1174.09 1122.01 1127.16 1158.49 1070.25 1113.69 1010.1 1013.3 947.23 922.73 889.15 899.7 837.95 968.04 790.49 1090.85 750.48 1193.94 716.63 1209.44 685.83 1128.7 658.82 1007.47 634 934.9 610.06 968.78 586.6 1086.78 562.99 1202.27 539.38 1226.56 516.18 1141.23 494.13 1012.31 472.96 933.13 454.65 957.66 440.93 1062.06 430.25 1171.84 426.53 1207.26 431.14 1145.27 447.59 970.9 505.35 985.62 522.02 1117.31 513.47 1138.23 486 1082.3 436.31 977.37 368.78 867.55 288 798.7 205.33 790.33 137.62 837.88 95.83 911.63 90.88 976.63 121.43 1009.58 179.86 994.28 247.04 937.05 294.5 851.14 304.05 759.57 263.34 681.07 180 624.76 77.25 597.83 -9.93 595.84 -48.96 614.88 -25.69 643.19 50.04 671.34 139.51 698.91 200.78 715.84 198.45 720.97 127.4 718.41 17.9 705.56 -77.68 685.6 -110.92 661.12 -64.17 633.76 38.13 606.18 136.18 577.51 174.94 550.86 128.83 527.25 22.84 503.64 -78.57 483.63 -117.47 466.32 -73.61 447.9 29.27 429.95 135.59 409.91 192.1 385.33 173.67 354.45 96.1 314.17 -0.2 266.21 -63.03 207.34 -62.21 138.86 2.54 69.79 104.61 1.58 203.06 -56.21 263.8 -93 268.59 -103.7 224.64 -83.78 151.85 -41.67 83.92 14.75 46.48 66.88 51.24 90.33 99.61 73.21 177.26 9.31 267.93 -86.62 349.96 -189.84 409.53 -265.26 440.76 -284.78 443.08 -242.22 424.2 -156.98 389.49 -76.64 352.5 -43.58 322 -85.56 295.41 -247.93 333.29 -314.57 385.05 -161.2 427.75 -112.54 471.57 -159.24 513.65 -278.13 557.09 -391.64 596.53 -423.12 630.97 -348.61 665.48 -224.36 694.71 -141.42 718.32 -165.71 750.64 -339 785.33 -284.69 789.35 -130.75 791.8 -137.14 791.72 -228.95 791.85 -338.44 798 -393.46 809.79 -355.05 831.4 -247.17 865.06 -129.48 912.47 -65.44 974.07 -80.86 1043.34 -160.37 1117.96 -252.51 1189.06 -306.09 1244.33 -294.5 1277.15 -219.57 1279.7 -113.6 1253.92 -13.5 1204.31 45.68 1144.58 52.7 1097.88 12.75 1078.98 -50.16 1102.1 -109.15 1167.42 -147.42 1261.63 -148.85 1359 -114.89 1427.54 -51.91 1445.63 26.08 1405.95 104.99 1328.56 178.84 1245.73 236.61 1198.28 276.91 1214.76 301.47 1292.97 312.48 1402.6 315.55 1493.49 310.85 1523.2 305.78 1475.8 303.96 1330.62 302.3 1338.93 331.7 1496.83 363.66Q1496.83 363.66 1496.83 363.66" opacity="0.94"></path><path d="M1461.66 534.33C1506.74 556.7 1473.11 581.38 1380.17 607.44 1274.86 632.48 1208.56 656.86 1209.95 678.18 1275.78 695.45 1369.97 705.99 1446.41 707.06 1471.54 701.42 1431.87 685.04 1344.73 658.9 1203.52 618.27 1186.13 591.39 1288.82 647.39 1348.04 716.36 1370.24 801.79 1349.05 889.01 1289.52 956.84 1206.9 991.51 1120.92 981.69 1046.24 933.65 997.14 862.16 976.97 795.64 984.68 767.42 1011.93 793.57 1048 874.26 1103.44 1029.09 1136.09 1045.36 1106.67 907.29 1072.12 859.48 1030.76 889.6 986.72 989.45 939.01 1106.32 893.13 1175.74 850.96 1155.47 808.59 1060.06 771.05 948.94 738.63 896.82 706.43 942.53 679.09 1058.03 656.72 1166.46 634.35 1192.49 617.49 1118.19 606.12 996 594.97 906 589.59 904.46 589.77 986.58 589.75 1098.74 594.2 1166.78 601.32 1149.74 604.79 1056.94 606.42 939.65 602.2 858.87 587.33 851.39 560.58 913.45 518.97 1005.21 464.56 1080.02 397.7 1096.67 323.39 1048.01 252.84 952.45 192.3 847.74 152.59 769.92 140.75 739.85 159.14 760.52 204.51 814.74 288.52 908.52 320.22 914.9 214.16 819.42 118.65 737.42 36.02 660.41 -6.45 597.47 4.67 550.73 65.06 523.62 150.58 512.24 221.32 514.67 246.43 524.04 208.68 534.78 119.61 548.93 14.74 558.51 -59.71 561.75 -69.73 564.14 -10.02 559.6 90.86 548.56 179.37 536.93 210.74 519.78 165.66 497.41 66.11 475.04 -32.97 448 -80.42 416.06 -53.83 383.53 34.06 345.14 139.85 300.57 215.44 255.15 228.54 204.14 178.92 149.41 91.08 98.08 9.04 48.98 -30.73 7.79 -12.22 -19.6 59.26 -30.29 156.61 -20.29 248.37 5.9 305.03 47.26 314.4 94.78 278.57 131.05 216.49 147.28 152.44 130.83 104.66 78.26 91.17 -4.64 114.77 -101.63 170.67 -185.17 246.56 -233.78 327.16 -230.13 402.35 -178.74 459.68 -98.93 495.34 -26.66 509.19 -1.27 504.64 -39.57 488.52 -134.32 462.93 -246.04 437.47 -326.34 416.99 -335.28 401.03 -171.22 466.63 -376.35 503.39 -293.34 528.79 -175.57 553.04 -103.5 575.41 -129.48 597.78 -237.9 617.74 -351.14 635.9 -392.47 654.84 -335.96 673.52 -218.26 693.63 -114.2 716.81 -85.27 744.27 -143.99 778.16 -248.23 817.6 -335.48 865.31 -351.05 921.45 -286.87 980.7 -175.06 1043.96 -71.51 1106.27 -21.93 1159.13 -43.1 1199.32 -116.26 1219.96 -200.38 1218.77 -257.79 1194.73 -259.04 1151.54 -204.41 1102.94 -111.48 1057.77 -12.07 1031.19 65.28 1036.9 104.41 1078.31 100.46 1152.51 64.64 1242.96 9.42 1329.95 -42.71 1389.07 -77.2 1402.99 -89.03 1368 -72.78 1296.2 -33.76 1218.8 23.4 1165.54 88.88 1163.42 154.44 1219.6 219.34 1316.2 275.45 1416.66 321.67 1478.9 361.18 1476.48 392.08 1409.53 416.99 1312.36 437.85 1231.05 456.41 1208.88 474.93 1260.75 492.44 1362.11 511.96 1461.66 534.33Q1461.66 534.33 1461.66 534.33" opacity="0.83"></path><path d="M1424.92 485.66C1470.15 506.79 1445 522.63 1363.03 532.99 1234.93 540.49 1426.49 505 1372.99 498.47 1284.05 508.43 1190.13 532.27 1120.11 573.77 1092.03 630.55 1109.65 701.56 1160.72 779.91 1257.76 879.83 1299.44 913.6 1217.71 833.7 1139.05 772.25 1060.83 728.86 994.8 724.66 946.75 768.87 921.51 853.65 916.67 955.79 929.97 1039.51 953.53 1076.39 980.29 1050.72 1035.83 899.65 1010.7 1126.26 974.59 1091.71 946.98 989.79 919.19 893.23 892.81 861.25 865.85 916.82 841.48 1028.86 820.36 1130.25 799.24 1157.64 781.85 1094.03 767.66 980.19 752.9 883.24 740.15 858.18 727.92 914.42 713.1 1018.11 696.14 1106.85 674.67 1131.86 647.47 1080.25 612.75 977.1 568.9 872.28 518.7 810.92 460.49 816.43 396.86 877.79 335.42 964.92 278.18 1033.84 232.32 1055.08 204.61 1020.24 198.4 940.54 216.23 843.65 252.03 756.08 301.24 702.57 352.21 690.86 387.71 718.37 398.44 769.34 374.99 824.54 317.69 871.74 235.42 894.74 145.76 889.9 72.69 858.98 34.6 807.29 43.84 744.38 95.01 674.61 171.72 608.63 245.18 551.31 283.24 501.63 269.4 463.64 202.96 435.51 60.59 407.71 12.94 374.83 145.35 357.46 223.14 345.61 246.15 329.45 200.92 308.32 107.2 287.2 11.64 261.62 -41.43 232.33 -29.58 203.71 42.44 172.83 142.28 141.7 229 113.87 268.4 89.38 249.14 71.53 181.52 61.33 97.38 61.79 31.37 74.86 7.12 95.56 35.88 125.84 107.05 160.93 199.6 189.16 285.41 207.18 342.56 205.55 359.76 177.85 337.82 123.41 289.48 46 228.54 -39.42 176.34 -119.4 146.43 -174.61 144.09 -190.61 171.99 -163.47 223.42 -100.85 291.59 -28.91 364.58 27.27 432.94 40.13 492.77 -3.08 537.37 -92.46 566.52 -198.44 581.27 -278.65 584.34 -301.39 580.23 -255.54 549.05 -122.46 538.73 -339.67 554.76 -237.52 567.58 -127.85 584.68 -66.34 605.8 -93.69 626.93 -195.07 651.58 -304.98 679.9 -356.41 708.68 -320.28 741.91 -217.51 779.98 -107.44 819.04 -48.96 863.16 -70.34 911.67 -153.54 959.45 -252.91 1008.83 -312.14 1056.67 -301.57 1097.39 -225.63 1130.01 -118.42 1149.95 -25.54 1155.49 18.97 1144.56 2.58 1117.29 -59.14 1081.49 -139.28 1039.94 -200.55 1002 -219.82 980.79 -190.68 981.9 -120.92 1011.93 -31.79 1069.53 57.02 1148.1 123.57 1233.98 158.35 1307.26 159.76 1352.72 134.66 1357.52 95.57 1322.37 49.78 1257.03 12.44 1183.32 -9.65 1131 -16.45 1119.45 -4.6 1159.19 22.04 1240.68 60.97 1338.57 106.91 1418.11 154.87 1449.29 206.12 1419.98 254.17 1341.41 297.22 1249.73 339.77 1183.91 376.61 1176.24 407.85 1233.5 438.63 1331.2 464.54 1424.92 485.66Q1424.92 485.66 1424.92 485.66" opacity="0.67"></path><path d="M1389.7 297.45C1433.52 317.33 1414.88 332.92 1343.23 344.83 1206.89 362.52 1176.59 397.65 1289.51 425.96 1361.08 453.37 1394.41 489.64 1378.82 536.39 1319.24 590 1233.76 651.82 1147.31 717.97 1081.12 779.12 1050.97 832 1059.18 868.07 1100.43 881.3 1158.23 869.03 1214.93 831.92 1258.51 781.68 1275.48 727.23 1263.15 685.11 1223.92 673.03 1164.72 697.98 1095.89 761.23 1024.27 848.78 960.59 940.67 910.14 1010.07 874.17 1034.79 854.29 1007.28 847.61 936.86 852.89 854.85 864.71 793.82 878.73 784.6 896.06 837.22 910.25 934.12 919.49 1036.52 927.44 1098.98 929.32 1093.41 925.48 1021.24 920.03 920.71 909.87 841.95 895.87 829.05 881.32 892.38 863.92 1000.08 844.04 1094.47 824.16 1122.89 802.26 1069.54 778.08 965.37 753.36 865.25 725.35 820.25 693.31 849.27 659.66 935.55 620.94 1031.7 576.93 1089.73 531.61 1083.22 482.11 1013.58 430.32 912.02 381.85 818.38 336.43 768.69 298.5 776.06 272.53 833.17 260.72 911.41 266.04 978.32 285.85 1011.26 319.94 995.93 363.12 938.42 403.49 853.49 435.4 764.83 448.57 692.71 434.84 648.76 393.05 638.91 325.99 657.53 245.82 697.97 165.87 744.89 103.93 786.28 75.02 817.62 85.89 829.74 134.35 822.54 203.07 798.29 272.35 760.09 317.35 713.77 318.37 660.46 272.09 607.16 189.31 557.25 96.56 508 24.28 464.75 -0.87 427.6 29.75 392.37 105.64 362.24 197.18 336.26 264.89 310.99 281.52 288.6 237.7 268.71 150.39 248.83 58.56 231.93 0.23 218.47 -2.66 205.72 51.65 197.69 140.91 195.42 262.78 198.28 230.72 237.49 119.45 265.34 63.19 277.21 47.66 281.82 76.88 273.43 142.97 247.99 227.81 204.19 309.85 142.21 372.37 70.18 402.74 -6.32 399.76 -75.21 367.39 -122.29 318.8 -139.76 268.08 -121.88 223.97 -75.83 199.09 -11.99 197.18 49.46 217.55 83.51 257.77 76.72 311.07 23.09 373.55 -64.51 436.66 -162.02 495.1 -236.87 548.46 -261.99 591.91 -228.53 625.57 -149.47 651.09 -62.47 668.87 -5.77 681.48 -10.45 689.15 -79.68 695.2 -185.32 701.76 -279.29 706.57 -316.01 713.99 -276.89 725.08 -180.72 735.85 -80.47 750.98 -29.1 770.86 -57.48 790.75 -151.85 814.9 -257.55 842.86 -316.98 870.5 -300.18 901.24 -215.59 933.92 -107.39 964.85 -27.52 995.64 -12.43 1024.05 -63.65 1056.28 -196.81 1069.87 -214.46 1044.24 -76.11 1018.44 12.04 987.02 58.83 955.18 54.82 932.52 6.13 921.89 -63.62 929.96 -127.69 960.31 -167.47 1012.48 -167.6 1082.64 -129.47 1159.43 -61.29 1232.83 20.45 1288.69 99.14 1315.16 164.69 1306.94 206.56 1265.13 223.97 1203.79 218.55 1138.22 197.36 1089.86 168.86 1078.35 135.36 1110.08 107.13 1180.9 87.98 1271.24 75.68 1355.2 74.73 1405.19 83.39 1404.65 98.79 1353.32 120.33 1269.55 145.14 1187.95 172.97 1139.46 200.87 1146.27 227.04 1208.51 253.85 1302.34 277.56 1389.66 297.44Q1389.7 297.45 1389.7 297.45" opacity="0.11"></path><path d="M1353.7 276.14C1396.54 294.78 1384.49 316.22 1323.57 340.74 1235.89 365.82 1152.05 395.01 1099.44 429.02 1093.71 464.54 1133.58 505.61 1202.61 552.03 1279.09 598.8 1335.93 648.65 1356.08 698.65 1334.49 742.58 1276.24 779.79 1197.35 805.16 1115.53 815.56 1050.07 808.72 1012.77 783.76 1008.31 747.53 1033.11 702.72 1076.96 658.74 1130.67 629.72 1178.75 622.22 1211.34 644.35 1224.54 696.27 1214.1 772.02 1182.96 858.08 1134.73 933.48 1076.44 981.79 1015.15 988.65 953.64 953.59 898.98 886.48 853.71 810.02 817.19 755.37 791.09 743.16 773.59 784.16 763.7 867.53 758.86 966.03 756.39 1043 757.46 1068 757.76 1030.76 755.68 946.14 754.51 853.99 749.61 795 740.36 799.52 731.21 868.47 717.42 971.03 698.79 1058.47 680.15 1087.59 657.09 1043.98 629.94 950.49 602.88 850.78 572.01 790.16 538.02 792.8 504.95 855.36 470.12 946.14 435.23 1024.05 403.88 1057.73 375.62 1031.53 353.2 956.85 338.4 860.02 333 775.45 338.92 728.89 353.59 731.44 378.52 776.58 411.32 843.95 459.15 934.63 492.87 903.78 447.66 795.67 390.64 715.25 319.3 648.25 243.58 603.18 177.72 582.88 132.16 586.28 117.22 606.67 135.11 640.16 182.5 675.87 247.7 706.91 331.5 739.96 292.65 732.71 171.16 699.94 91.62 670.18 42.85 637.98 41.38 605.93 86.8 572.03 165.15 540.63 249.14 512.97 306.38 485.02 316.54 461.49 273.7 442.85 192.47 424.2 105.13 410.9 43.71 402.54 28.48 393.89 65.56 389.51 140.94 388.26 267.06 383.99 311.29 361.18 219.89 328.58 150 294.31 101.77 248.77 88.29 192.14 112.46 130.5 169.14 65.08 244.35 2.85 323.81 -46.26 390.83 -77.42 435.11 -83.79 452.02 -65.41 442.47 -24.01 413.39 31.97 370.53 84.97 326.3 123.09 289.36 131.31 262.81 101.44 253.4 36.34 261.1 -51.56 284.15 -138.34 320.12 -201.56 364.3 -220.75 415.3 -190.83 467.31 -121.46 517.08 -38.29 566.02 22.73 609.62 36.82 647.5 -7.35 682.4 -95.77 712.16 -195.45 737.79 -265.22 761.48 -275.08 782.66 -219.98 802.35 -123.97 821.48 -34.15 840.19 7.59 858.83 -21.47 877.47 -108.9 895.6 -209.58 912.77 -274.87 929.39 -275.73 943.98 -211.27 955.45 -111.94 964.97 -20.11 969.74 26.04 968.66 11.58 964.6 -54.85 954.11 -141.22 937.47 -210.93 920 -238.28 899.49 -210.9 879.1 -139.63 865.52 -46.54 859.27 38.62 864.94 93.09 885.97 105.66 923.13 78.1 976.34 24.71 1039.95 -39.33 1109.78 -91.81 1177.07 -119.31 1230.59 -117.01 1263.4 -83.92 1268.5 -28.23 1246.23 42.41 1199.95 114.96 1139.91 179.92 1084.11 233.61 1045.49 270.16 1037.94 290.37 1068.05 295.6 1131.47 289.9 1215.02 278.27 1326.15 252.19 1313.48 215 1199 211.36 1130.81 212.51 1099.22 219.09 1118.14 230.31 1183.24 242.11 1272.47 257.5 1353.7 276.14Q1353.7 276.14 1353.7 276.14" opacity="0.11"></path><path d="M1317.66 456.68C1359.29 474.08 1353.2 495.87 1302.81 521.59 1224.33 547 1141.87 575.64 1079.35 606.38 1130.71 687.43 1232.94 700.18 1029.67 602.9 963.05 567.74 997.08 602.39 1079.17 725.17 1154.76 870.45 1167.46 947.58 1118.15 886.93 1024.51 759.16 920.57 704.07 831.27 815.86 755.49 985.9 703.03 1018.85 664.78 869.71 648.42 791.55 633 753 617.51 772.73 602.5 845.18 586.48 941.9 569.09 1022.46 551.69 1051.93 533.32 1017.46 514.45 935.32 487.06 803.55 428.84 931.85 438.91 984.86 467.91 820.99 514.55 693.02 554.57 711.75 550.25 833.73 487.6 916.68 366.4 886.38 238.71 762.35 163.43 625.32 193.82 539.4 298.35 519.84 392.16 548.9 372.94 587.29 176.41 625.86 349.13 572.81 309.66 547.13 234.47 529.73 152.11 511.92 89.12 493.28 63.54 474 84.1 452.68 143.38 428.21 303.95 372.94 381.62 295.73 318.92 194.95 189.12 96.26 128.04 9.9 187.05 -24.18 325.25 8.08 450.25 95.16 501.59 173.61 472.04 158.32 403.3 34.14 345.92 -124.06 317.99 -179.05 338.33 -82.3 390.66 56.06 465.08 49.82 541.42 -114.42 607.01 -240.64 639.95 -226.42 669.15 -160.1 694.4 -67.5 719.52 11.2 740.86 43.94 758.25 14.51 775.65 -66.03 788.7 -160.99 797.46 -230.03 806.1 -246.34 810.29 -202.7 810.16 -117.83 810.19 44.75 797.15 31.64 783.02 -112.88 791 -199.2 827.95 -112.92 909.51 51.07 1020.52 147.96 1139.21 112.09 1214.36 12.41 1208.62 -64.76 1124.88 -49.46 1022.91 39.31 1000.12 164.87 1092.41 272.87 1247.71 343.05 1335.91 380.41 1278.05 393.63 1130.9 403.23 1078.34 405.31 1062.9 410.05 1091.92 418.52 1158.35 426.69 1242.47 439.28 1317.66 456.68Q1317.66 456.68 1317.66 456.68" opacity="0.85"></path><path d="M1281.66 544.83C1266.68 590.43 1059.06 619.49 1220.29 574.65 1277.88 538.39 1218.48 507.4 1089.6 515.09 966.88 582.01 915.77 702.7 939.01 833.59 1044.75 881.52 1068.57 685.34 972.68 861.35 890.57 984.91 816.01 950.88 755.71 795.14 697.55 716.85 652.72 822.21 620.41 986.46 578.97 909.65 574.34 848.84 608.35 978.73 622.24 878.83 621.06 720.12 583.56 640.06 504.96 685.65 391.91 792.33 277.16 862.11 211.58 849.59 224.37 757.61 313.46 640.1 408.7 531.3 439.12 465.73 357.85 438.22 163.74 445.2 333.96 450.38 345.66 411.61 197.8 379.31 101.49 329.15 150.07 263.78 295.51 200.81 407.45 131.72 402.5 73.89 298.21 45.41 195.68 57.76 175.67 116.75 251.4 184.47 378.58 230.09 490.19 200.28 549.19 88.17 545.52 -56.81 506.63 -136.07 430.96 -24.81 425.27 -46.43 479.17 -204.68 523.89 -100.3 565.09 54.11 597.4 50.51 629.7 -113.72 651.59 -212.58 667.8 -121.86 689.93 46.35 718.51 98.8 765.46 -1.05 832.05 -132.64 923.72 -145.19 1029.95 -30.28 1143.67 158.17 1038.34 46.05 951.82 -8.22 1005.47 33.87 1136.98 118.07 1264.95 210.32 1293.58 304.09 1200.03 376.99 1067.06 430.06 1030.94 476.01 1133.81 512.52 1281.66 544.83Q1281.66 544.83 1281.66 544.83" opacity="0.97"></path><path d="M1245.7 396.92C1288.32 426.75 1198.96 438.72 1059.73 435.15 981.29 434.11 1016.67 425.81 1122.17 424.54 1218.52 448.28 1229.85 504.45 1153.6 600.18 1030.2 710.23 922.6 809.98 868.62 851.2 875.2 813.88 921.12 716.29 973.36 628.87 1020.15 636.1 1037.19 750.51 1026.38 898.28 996.23 954.91 952.71 869.65 907.63 725.49 858.53 684.94 817.04 799.86 787.21 950.47 749.02 891.3 716.97 762.89 690.07 930.77 649.2 914.39 583.04 787.14 490.29 652.74 392.08 595.52 303.35 636.5 257.68 721.81 272.58 798.31 344.82 812.45 437.16 766.23 482.36 676.84 444.28 577.81 326.07 493.34 198.71 421.89 146.36 373.53 213.28 339.45 341.01 312.56 424.32 286.98 381.7 257.15 245.66 227.33 144.19 194.69 162.72 165.32 283.31 143.16 411.74 137.26 459.77 157.01 354.11 214.75 259.13 254.95 404.11 110.91 513.68 -13.49 586.02 -89.85 615.11 -63.71 606.05 39.62 578.61 140.13 552.46 134.69 519.73 -63.52 540.94 30.29 581.4 86.51 611.22 -64.08 648.18 -173 694.59 -120.98 744.78 34.68 809.65 136.95 888.75 102.19 966.58 -23.7 1043.14 -111.38 1098.18 -87.57 1115.07 30.89 1085.55 163.84 1015.08 240.26 945.17 238.13 908.53 181.2 944.58 117.12 1050.27 67.34 1179.65 60.28 1255.87 88.23 1229.73 141.18 1118.29 203.74 1009.19 261.02 1002.14 320.83 1109.62 367.09 1245.66 396.91Q1245.7 396.92 1245.7 396.92" opacity="0.95"></path><path d="M1209.7 254.02C1254.14 281.35 1184.55 306.28 1057.26 333.33 958.9 366.4 949.75 412.28 1021.22 478.13 1125.03 555.13 1189.38 646.55 1181.05 734.04 1105.67 788.62 997.28 794.38 898.41 739.92 831.6 658.12 809.8 587.47 820.84 585.59 856.52 672.43 893.15 808.63 917.72 906.79 937 838.22 896.07 717.97 856.86 914.47 829.52 931.8 799.89 813.19 765.19 676.16 726.36 640.31 675.57 725.89 609.44 845.19 537.49 902.31 455.84 847.85 378.03 725.53 324.85 604.97 307.4 549.94 338.39 567.05 439.41 670.87 459.75 730.01 291.46 654.57 199.95 582.66 193.54 514.65 281.35 458.92 398.09 404.05 462.14 362.83 417.7 335.49 288.9 307.34 455.85 351.84 334.64 302.44 269.79 221.1 266.05 111.51 319.02 7.02 410.75 -45.91 509.35 -23.3 590.89 68.78 650.06 162.63 680.84 192.59 693.15 115.45 688.3 -74.45 696.7 83.23 730.66 122.51 757.99 -14.14 798.12 -128.29 848.62 -112.53 897.34 15.97 951.3 145.25 1001.43 177.03 1036.49 98.92 1050.75 -12.75 1033.73 -71.14 994.32 -40.8 934.97 62.24 879.07 179.88 861.92 270.17 898.05 303.66 991.36 291.22 1107.38 245.87 1199.21 199.47 1215.35 169.85 1093.27 153.29 1031.34 212.44 1209.66 254.01Q1209.7 254.02 1209.7 254.02" opacity="0.33"></path><path d="M1173.66 349.01C1218.95 373.87 1168.02 411.81 1057.24 462.14 950.2 512.83 903.82 574.33 931.95 639.53 1057.56 711.27 1109.26 677.73 991 575.64 895.73 533.51 819.15 544.36 769.97 623.67 745.7 794.2 771.88 751.95 777.11 610.91 777.29 636.15 765.29 755.89 740.44 878.46 715.58 900.78 679.05 804.61 632 671.92 585.11 600.51 529.48 635.3 470.77 736.82 421.22 835.03 382.59 858.98 367.41 799.92 378.28 688.28 419.19 579.18 481.88 512.17 537.25 499.22 568.42 530.35 550.03 578.18 477.46 631.61 369.55 664.64 268.53 673.33 222.18 665.83 254.42 641.81 351.87 611.27 453.05 576.02 498.95 543.8 453.66 518.95 341.86 494.09 240.34 477.79 210.79 466.16 266.78 449.83 376.81 428.64 481.53 393.07 535.79 341.31 522.36 267.35 461.91 175.62 353.44 56.08 367.62 77.3 474.41 202.88 556.88 236.06 628.18 189.84 683.56 73.43 728.62 -46.31 760.97 -95.27 786.43 -33.48 808.12 89.61 829.97 180.77 854.82 158.5 879.67 35.94 906.36 -78.78 931.54 -94.46 952.95 -2.54 965.81 128.99 963.81 211.63 951.51 201.42 921.14 118.89 876.97 26.65 839.27 -26.79 813.39 -8.18 818.91 66.52 866.6 171.19 953.14 266.84 1058.94 332.46 1145.28 365.63 1180.99 369.33 1144.95 359.27 1010.51 329 1008.58 318.87 1173.66 349.01Q1173.66 349.01 1173.66 349.01" opacity="0.96"></path><path d="M1137.66 527.09C1182.74 549.46 1148.79 577.42 1057.57 607.33 916.62 643.44 946.68 639.22 1053.45 578.23 1099.68 531.67 1102.48 491.72 1066.31 481.16 1000.6 516.38 922.79 596.8 848.77 704.41 781.2 796.87 730.38 838.18 694.78 802.7 669.73 711.96 652.57 612.52 637.35 569.41 625 618.47 608.85 734.03 586.48 842.46 564.11 868.49 536.59 794.37 506.75 673.93 479.79 580.57 456.26 566.29 442.54 627.02 439.39 725.68 453.37 800.65 486.46 816.52 526.01 769.76 571.71 680.16 608.1 583.21 614.96 500.46 585.64 452.82 516.12 438.35 422.9 452.04 329.15 478.3 269.36 503.13 267.25 530.21 326.32 544.58 422.73 545.17 505.32 543.57 534.74 530.9 489.66 508.53 390.11 486.16 293.14 455.16 247.49 414.58 271.12 371.8 353.45 316.74 455.57 250.89 540.32 187.31 578.66 124.21 567.77 76.04 516.59 56.04 452.7 71.57 399.92 125 366.33 192.63 364.81 255.71 390.06 279.19 436.11 240.03 492.8 145.02 549.67 29.96 609.15 -47.17 660.54 -45.64 701.84 39.06 741.99 150.87 773.23 220.48 795.6 194.5 826.08 36.46 773.87 246.88 752.37 167.09 761.59 82.77 795.22 28.86 858.13 22.95 940.23 62.83 1030.63 134.89 1105.1 215.92 1139.29 297.53 1121 362.09 1052.65 407.68 966.92 440.07 897.32 460.56 882.32 476.73 936.61 489.01 1038.11 504.73 1137.66 527.09Q1137.66 527.09 1137.66 527.09" opacity="0.94"></path><path d="M1101.7 498.02C1145.52 517.91 1126.44 528.44 1056.18 528.85 962.09 527.72 878.75 514.6 831.58 490.48 830.85 468.05 869.46 442.69 927.85 424.87 991.85 428.34 1037.64 457.25 1056.08 517.51 1048.25 598.96 1015.16 690.02 967.07 764.79 907.77 797.06 848.48 774.4 795.47 700.79 744.08 612.18 701.88 545.32 668.46 539.38 636.69 604.49 611.17 712.09 591.29 806.47 571.4 834.89 558.1 781.56 552.38 679.33 548.3 578.5 554.34 526 571.27 537.48 589.82 603.08 616.37 685.62 645.02 748.84 662.47 774.94 667.02 752.66 648.79 694.85 604.29 614.61 534.92 533.95 450.23 466.97 371.13 414.7 314.69 382.79 300.84 365.52 333.44 359.69 405.47 357.8 491.88 353.29 554.47 351.05 569.52 341.1 525.7 321.22 438.39 301.34 348.56 272.46 292.7 237.21 288.31 204.22 337.89 169.94 420.33 141.32 510.89 124.14 582.06 123.3 619.26 144.93 618.91 181.26 589.23 233.38 545.67 287.56 494.99 319.31 455.37 318.02 433.09 271.21 424.59 187.29 433.69 86.92 454.61 6.74 484 -19.3 516.94 21.88 548.16 115.03 581.09 209.59 608.56 258.89 628.44 230.47 654 84.3 672.14 27.78 678.82 170.05 692.35 258.24 715.99 298.72 755.12 287.15 808.04 233.09 876.19 165.6 952.93 110.22 1022.56 76.01 1075.83 75.65 1096.88 102.82 1080.4 151.29 1027.07 209.39 951.09 266.27 883.22 324.84 844.94 374.13 856.99 412.76 920.49 449.84 1014.35 478.13 1101.66 498.01Q1101.7 498.02 1101.7 498.02" opacity="0.19"></path><path d="M1065.65 309.12C1107.28 326.52 1100.65 335.8 1051.16 338.81 974.46 343.69 892.98 346.3 827.73 351.7 790.37 388.81 863.06 481.99 949.96 630.06 1003.4 740.72 983.41 731.8 926.67 588.81 889.99 524.75 854.36 496.04 823.31 520.38 791.49 593.43 766.17 689.95 748.77 770.5 731.37 799.93 722.73 765.29 721.74 684.88 719.98 589.83 723.96 515.66 730.49 484.19 726.94 558.75 692.62 687.19 593.58 725.79 461.08 657.96 351.48 536.52 363.34 435.79 415.83 389.98 487.41 354.05 557.4 326.3 600.18 300.62 603.28 279.65 561.65 262.25 486.46 244.86 405.93 231.86 345.8 224.73 320.17 219.67 337.87 223.95 390.57 239.61 544.55 280.04 651.41 347.18 665.37 369.41 606.36 285.2 543.99 119.86 518.69 19.8 511.8 38.52 514.14 102.78 523.39 191.12 534.34 264.82 549.18 295.93 566.57 266.5 583.97 185.95 603.11 92.95 624.96 26.62 648.52 9 677.83 47.61 714.86 124.42 800.47 292.91 917.14 338.74 1021.75 273.68 1053.39 171.22 983.44 132.34 854.96 155.52 815.01 180.27 807.22 209.3 839.56 237.24 906.41 267.04 990.46 291.73 1065.65 309.12Q1065.65 309.12 1065.65 309.12" opacity="0.21"></path><path d="M1029.31 268.23C1072.43 298.06 983.61 345.59 849.1 420.46 757.07 506.39 752.73 614.83 802.2 696.59 899.33 656 902.27 525.27 858.11 734.36 828.29 745.45 800.13 605.92 759.76 472.77 701.95 454.3 610.49 538.11 496.73 626.09 408.17 674.48 380.88 650.81 451.05 594.34 563.7 518.65 640.43 457.5 597.31 427.68 461.14 397.85 364.32 402.18 379.91 426.19 487.58 430.97 614.14 408.1 695.45 320.63 712.68 135.83 659.2 249.73 688.36 302.36 718.19 151.75 776.32 46.87 854.38 91.04 924.65 235.05 986.94 356.2 1000.92 391.12 958.7 348.46 863.77 286.56 777.96 252.31 784.23 229.12 893.14 238.41 1029.31 268.23Q1029.31 268.23 1029.31 268.23" opacity="0.46"></path><path d="M993.7 442.07C1038.95 466.93 987.6 517.13 882.65 579.51 774.83 628.59 711.01 657.94 696.76 636.04 723.21 572.84 760.08 479.79 782.87 420.68 805.5 455.59 804.69 575.9 779.83 698.47 754.98 720.79 708.44 625.26 642.74 497.31 576.88 413.75 501.22 412.62 442.2 461.63 423.87 535.57 461.34 583.94 550.94 596.48 637.67 593.68 678.95 572.85 633.7 547.99 521.89 523.14 424.76 496.62 397.14 456.35 442.56 400.73 536.77 313.58 632.26 207.07 713.79 125.49 762.63 100.26 788.75 165.6 801.35 275.33 814.53 360.79 839.38 338.47 881.32 160.78 940.8 226 886.82 381.48 823.9 435.96 756.05 445.38 728.85 439.37 774.69 420.07 881.89 417.22 993.7 442.07Q993.7 442.07 993.7 442.07" opacity="0.40"></path><path d="M957.7 547.22C1001.52 567.1 981.54 581.95 915.46 583.18 826.35 574.49 744.11 539.19 686.75 479.17 652.8 424.72 640.32 384.87 635.58 393.31 638.57 460.74 633.71 568.09 613.83 662.47 593.94 690.89 560.93 637.58 523.49 541.19 493.76 441.21 475.21 376.81 483.11 355.1 514.41 369.48 575.56 398.19 650.09 419.17 701.6 443.03 713.52 446.87 669.7 426.99 582.39 407.11 496.57 365.39 446.32 307.07 438.41 251.64 475.86 191.89 536.35 151.46 610.36 147.11 677.38 190.42 727.74 275.83 773.82 357.63 806.25 402.89 826.14 374.47 846.02 280.09 851.48 180.79 839.86 127.94 823.96 134.07 787.96 195.01 740.01 275.52 705.58 361.6 689.21 427.93 711.67 471.08 776.48 504.3 870.35 527.33 957.66 547.21Q957.7 547.22 957.7 547.22" opacity="0.97"></path><path d="M921.7 412.42C964.33 442.24 875.33 401.79 762.19 342.34 659.37 355.12 601.56 475.88 571.74 626.47 541.91 637.56 545.72 500.02 609.46 378.34 683.51 309.49 748.33 291.81 705.7 261.99 569.66 232.17 481.41 195.84 489.81 225.61 557.53 308.2 636.22 421.56 666.05 410.47 695.87 259.88 671.18 163.3 642.55 189.61 673.23 288.15 785.66 382.6 921.7 412.42Q921.7 412.42 921.7 412.42" opacity="0.47"></path><path d="M885.7 257.37C929.52 277.25 907.63 289.99 854.69 324.03 784.53 389.28 727.12 496.09 707.24 590.47 687.36 618.89 708.76 565.5 752.87 488.26 779.74 401.85 785.52 341.78 741.7 321.9 654.38 302.02 576.63 326.08 541.43 386.44 528.25 437.61 543.4 474.89 563.28 446.47 583.16 352.09 604.01 261.39 643.25 222.21 704.52 214.23 798.38 237.48 885.7 257.37Q885.7 257.37 885.7 257.37" opacity="0.65"></path></g></svg>