<?xml version="1.0" encoding="utf-8"?>
<!-- Svg Vector Icons : http://www.onlinewebfonts.com/icon -->
<!DOCTYPE svg PUBLIC "-//W3C//DTD SVG 1.1//EN" "http://www.w3.org/Graphics/SVG/1.1/DTD/svg11.dtd">
<svg version="1.1" xmlns="http://www.w3.org/2000/svg" xmlns:xlink="http://www.w3.org/1999/xlink" x="0px" y="0px" viewBox="0 0 1000 1000" enable-background="new 0 0 1000 1000" xml:space="preserve">
<metadata> Svg Vector Icons : http://www.onlinewebfonts.com/icon </metadata>
<g><g transform="translate(0.000000,247.000000) scale(0.100000,-0.100000)"><path d="M2519.4,377.5L100-1440.9v-2909.3v-2905.6h4900h4900v2905.6v2909.3L7469.1,377.5c-1339.8,1003-2453.8,1822.2-2480.6,1818.4C4961.7,2195.8,3851.6,1376.6,2519.4,377.5z M5631.6,339.2c562.7-176.1,895.8-673.7,853.7-1274.8c-30.6-421.1-294.8-823-654.6-995.3c-245-114.8-566.6-118.7-662.3-7.7c-61.3,68.9-65.1,68.9-191.4-3.8c-176.1-103.3-474.7-99.5-646.9,7.7c-371.3,229.7-382.8,918.7-23,1374.3c229.7,287.1,646.9,394.3,914.9,233.5c107.2-65.1,126.3-68.9,145.5-19.1c19.1,42.1,84.2,57.4,248.8,57.4c218.2,0,225.9-3.8,206.7-84.2c-72.8-310.1-248.8-1171.4-248.8-1225c0-191.4,336.9,34.5,486.2,325.4c134,264.2,145.5,624,19.1,857.5c-111,214.4-329.2,382.8-578.1,459.4c-283.3,80.4-761.8,53.6-1018.3-61.2c-731.2-325.4-991.5-1416.4-467-1983c283.3-306.3,597.2-409.6,1182.9-386.6c432.6,15.3,654.6,91.9,918.8,298.6c103.4,84.2,179.9,114.8,294.8,114.8c88,0,156.9-11.5,156.9-26.8c0-15.3-42.1-88-95.7-168.4c-444-635.5-1757.1-761.8-2511.3-241.2c-566.6,390.5-704.4,1389.6-287.1,2094C4027.7,289.4,4881.3,576.5,5631.6,339.2z M2278.2-2757.8c968.5-654.6,1757.1-1202,1753.3-1225c-15.3-42.1-3514.2-2767.7-3556.3-2771.5c-19.1-3.9-30.6,1167.6-30.6,2603.1c0,1431.7,15.3,2599.3,34.4,2591.6C494.3-1563.4,1305.9-2103.2,2278.2-2757.8z M9555.5-4155c0-1431.7-11.5-2603.1-26.8-2599.3c-45.9,3.8-3544.8,2729.4-3560.2,2771.5c-7.7,34.5,3487.5,2419.4,3560.2,2427C9544-1551.9,9555.5-2723.3,9555.5-4155z M7170.6-5311.1l2136.1-1657.6l-2155.2-11.5c-1182.9-3.8-3119.9-3.8-4302.8,0l-2155.2,11.5L2818-5315c1167.6,907.3,2147.6,1653.8,2170.6,1653.8C5015.3-3657.4,5999.1-4403.9,7170.6-5311.1z"/><path d="M4846.9-583.4c-30.6-11.5-88-49.8-130.2-84.2c-248.8-218.2-317.7-884.3-99.5-999.1c325.4-172.3,643.1,252.7,616.3,834.5C5225.9-656.1,5015.3-522.2,4846.9-583.4z"/></g></g>
</svg>