<?xml version="1.0" standalone="no"?>
<!DOCTYPE svg PUBLIC "-//W3C//DTD SVG 20010904//EN"
 "http://www.w3.org/TR/2001/REC-SVG-20010904/DTD/svg10.dtd">
<svg version="1.0" xmlns="http://www.w3.org/2000/svg"
 width="512.000000pt" height="512.000000pt" viewBox="0 0 512.000000 512.000000"
 preserveAspectRatio="xMidYMid meet">

<g transform="translate(0.000000,512.000000) scale(0.100000,-0.100000)"
fill="#000000" stroke="none">
<path d="M1233 5104 c-47 -23 -65 -58 -71 -136 l-5 -68 -499 0 c-548 0 -546 0
-581 -59 -25 -42 -25 -389 -1 -431 50 -83 174 -78 219 10 10 20 15 60 15 130
l0 100 424 0 423 0 5 -63 c6 -74 26 -109 73 -131 41 -20 68 -20 109 -1 43 21
67 65 73 136 l6 59 978 0 979 0 0 -64 c0 -49 5 -69 21 -90 44 -56 109 -70 164
-36 42 26 65 75 65 139 l0 51 424 0 424 0 4 -107 c3 -84 8 -114 22 -136 50
-75 161 -75 212 0 17 25 19 48 19 218 0 208 -3 222 -58 255 -31 19 -55 20
-539 20 l-508 0 0 56 c0 69 -22 117 -65 144 -55 34 -120 20 -164 -36 -17 -21
-21 -41 -21 -95 l0 -69 -979 0 -978 0 -5 64 c-6 75 -30 120 -74 141 -40 19
-71 19 -111 -1z"/>
<path d="M143 4109 c-18 -5 -44 -24 -58 -43 l-25 -33 0 -1627 0 -1626 34 -38
34 -37 1149 -3 c1265 -3 1188 -7 1226 58 15 25 17 77 17 509 l0 481 65 0 c105
0 165 45 165 122 0 86 -52 128 -159 128 l-71 0 0 405 0 405 430 0 c430 0 430
0 430 -21 0 -53 61 -109 120 -109 60 0 130 60 130 113 0 16 27 17 425 17 l425
0 0 -97 c0 -117 21 -172 74 -197 45 -21 74 -20 113 4 72 44 68 -7 68 790 0
797 3 760 -69 794 -31 15 -219 16 -2263 15 -1339 0 -2241 -5 -2260 -10z m4337
-639 l0 -400 -425 0 -425 0 0 273 c0 252 -2 274 -20 304 -39 64 -116 85 -174
48 -54 -35 -56 -50 -56 -350 l0 -275 -430 0 -430 0 0 278 c0 253 -2 279 -19
305 -40 61 -108 78 -169 41 -59 -34 -62 -53 -62 -353 l0 -271 -424 0 -425 0
-3 278 c-3 248 -5 280 -21 304 -59 87 -172 80 -219 -13 -16 -30 -18 -67 -18
-301 l0 -268 -425 0 -425 0 0 400 0 400 2085 0 2085 0 0 -400z m-3320 -1065
l0 -405 -425 0 -425 0 0 405 0 405 425 0 425 0 0 -405z m1110 0 l0 -405 -425
0 -425 0 0 405 0 405 425 0 425 0 0 -405z m-1110 -1055 l0 -400 -425 0 -425 0
0 400 0 400 425 0 425 0 0 -400z m1110 0 l0 -400 -425 0 -425 0 0 400 0 400
425 0 425 0 0 -400z"/>
<path d="M3571 2392 c-61 -33 -79 -88 -56 -168 6 -18 -5 -26 -80 -62 -275
-132 -489 -373 -584 -657 -181 -539 58 -1126 562 -1381 147 -75 351 -124 512
-124 449 0 868 278 1044 691 71 167 86 247 85 454 0 164 -3 189 -28 280 -34
124 -98 262 -171 367 l-56 79 40 44 c22 24 43 55 47 69 10 42 -4 91 -37 122
-26 25 -38 29 -84 29 -50 0 -57 -3 -97 -42 -24 -24 -48 -43 -52 -43 -5 0 -32
15 -60 34 -28 18 -91 53 -139 77 -76 38 -87 47 -81 64 24 74 3 135 -57 167
-31 16 -63 18 -354 18 -291 0 -323 -2 -354 -18z m609 -407 c300 -95 514 -316
602 -622 19 -66 23 -101 22 -228 -1 -133 -4 -160 -27 -238 -82 -268 -277 -484
-525 -581 -242 -95 -532 -77 -752 46 -515 288 -614 980 -200 1399 108 109 223
178 370 222 114 35 124 36 285 32 119 -2 153 -7 225 -30z"/>
<path d="M3862 1706 c-13 -7 -32 -26 -43 -42 -17 -27 -19 -49 -19 -313 0 -270
1 -285 21 -317 11 -19 29 -39 39 -44 25 -13 96 -13 123 1 31 16 296 279 313
311 20 37 17 87 -6 125 -21 36 -43 50 -80 53 -57 5 -78 -2 -118 -36 l-42 -36
0 107 c0 115 -10 148 -56 184 -31 24 -96 28 -132 7z"/>
</g>
</svg>
