<svg id="Capa_1" data-name="Capa 1" xmlns="http://www.w3.org/2000/svg" viewBox="0 0 512 512"><defs><style>.cls-1{fill:#17212b;}</style></defs><path class="cls-1" d="M420.58,75.34H91.42A58.47,58.47,0,0,0,33,133.74V323.25a58.47,58.47,0,0,0,58.39,58.4H265.9v51.11A32.22,32.22,0,0,0,298.09,465h97.05a32.23,32.23,0,0,0,32.19-32.19V381.22a58.46,58.46,0,0,0,51.64-58V133.74A58.47,58.47,0,0,0,420.58,75.34ZM410.29,432.76a15.16,15.16,0,0,1-15.15,15.15H298.09a15.17,15.17,0,0,1-15.16-15.15v-90.9H410.29v90.9ZM311.9,324.82V292.49c0-18,15.57-32.58,34.71-32.58s34.7,14.62,34.7,32.58v32.33Zm150-1.56a41.32,41.32,0,0,1-34.6,40.67V333.34a8.51,8.51,0,0,0-8.52-8.51H398.36V292.5c0-27.36-23.21-49.62-51.74-49.62s-51.76,22.26-51.76,49.62v32.33H274.42a8.51,8.51,0,0,0-8.52,8.51v31.27H91.42a41.4,41.4,0,0,1-41.35-41.35V208.34H461.93Zm0-132H50.07V162.21H461.93V191.3Zm0-46.12H50.07V133.74A41.4,41.4,0,0,1,91.42,92.39H420.58a41.4,41.4,0,0,1,41.35,41.35Z"/><path class="cls-1" d="M92.67,331.78h135.9a8.52,8.52,0,1,0,0-17H92.67a8.52,8.52,0,0,0,0,17Z"/><path class="cls-1" d="M338.09,406.66v19a8.52,8.52,0,1,0,17,0v-19a27.45,27.45,0,1,0-17,0Zm8.52-36.38a10.42,10.42,0,1,1-10.4,10.41A10.43,10.43,0,0,1,346.61,370.28Z"/></svg>