<svg id="Capa_1" data-name="Capa 1" xmlns="http://www.w3.org/2000/svg" viewBox="0 0 512 512"><defs><style>.cls-1{fill:#17212b;}</style></defs><path class="cls-1" d="M431.21,369.74a9.82,9.82,0,0,0,9.85-17l-60.43-34.89,68.65-19.06a9.8,9.8,0,1,0-5.22-18.9l-87.24,24.21L278.49,258.9l78.33-45.22,87.25,24.22a9.8,9.8,0,1,0,5.22-18.9l-68.66-19.07L441.07,165a9.82,9.82,0,0,0,3.56-13.41,9.83,9.83,0,0,0-13.42-3.58L370.8,182.93l17.83-69a9.8,9.8,0,1,0-19-4.92L347,196.67l-78.29,45.2V151.42L333.28,88a9.81,9.81,0,1,0-13.76-14l-50.8,49.89V54.2a9.86,9.86,0,0,0-19.72,0v69.72L198.21,74a9.81,9.81,0,1,0-13.76,14L249,151.42v90.45l-78.29-45.2L148.07,109a9.8,9.8,0,0,0-19,4.93l17.83,69-60.4-34.88a9.82,9.82,0,1,0-9.85,17l60.42,34.89L68.44,219a9.81,9.81,0,0,0,5.22,18.91l87.24-24.22,78.32,45.22L160.9,304.12,73.65,279.91a9.8,9.8,0,0,0-5.22,18.9h0l68.65,19.06L76.66,352.76a9.82,9.82,0,0,0,9.85,17l60.41-34.88-17.83,69a9.8,9.8,0,0,0,19,4.93l22.65-87.66L249,275.93v90.46L184.45,429.8a9.8,9.8,0,0,0,6.8,16.79,9.9,9.9,0,0,0,7-2.81L249,393.88V463.6a9.86,9.86,0,0,0,19.72,0V393.89l50.79,49.88a9.81,9.81,0,0,0,13.88-.11,9.83,9.83,0,0,0-.11-13.87l-64.56-63.4V275.93L347,321.13l22.65,87.66a9.8,9.8,0,0,0,19-4.92l-17.83-69Z"/></svg>