<svg id="Capa_1" data-name="Capa 1" xmlns="http://www.w3.org/2000/svg" viewBox="0 0 512 512"><defs><style>.cls-1{fill:#17212b;}</style></defs><path class="cls-1" d="M364.59,378.55a28.69,28.69,0,1,0,28.69,28.69A28.69,28.69,0,0,0,364.59,378.55Zm0,43a14.35,14.35,0,1,1,14.34-14.34A14.34,14.34,0,0,1,364.59,421.58Z"/><path class="cls-1" d="M170,378.55a28.69,28.69,0,1,0,28.69,28.69A28.69,28.69,0,0,0,170,378.55Zm0,43a14.35,14.35,0,1,1,14.35-14.34A14.34,14.34,0,0,1,170,421.58Z"/><path class="cls-1" d="M421.21,203a35.85,35.85,0,0,0-31.12-18.12h-76.6V170.56a28.7,28.7,0,0,0-28.69-28.7H263A112,112,0,0,0,152.11,34.28,112.19,112.19,0,0,0,41,147.24a113.45,113.45,0,0,0,28.68,75.48v26.73H55.29a7.17,7.17,0,1,0,0,14.34H69.63v57.38H48.12a7.17,7.17,0,0,0,0,14.34H69.63V364.2a28.65,28.65,0,0,0,19.29,27A28.39,28.39,0,0,0,84,407.24a28.68,28.68,0,0,0,28.69,28.68h7.76a57.75,57.75,0,0,0,11.79,14.35H91.15a7.17,7.17,0,1,0,0,14.34h373a7.17,7.17,0,1,0,0-14.34H402.42a57.5,57.5,0,0,0,11.78-14.35h14a28.51,28.51,0,0,0,24.54-43.33,21.52,21.52,0,0,0,18.5-21.22V296.28a21.75,21.75,0,0,0-2.82-10.66Zm-79,67.94v-4.2L381,227.93h22.75l-43,43Zm0-24.48V227.93h18.54Zm78.62-15.31L443.56,271H381ZM309.1,392.89a55.38,55.38,0,0,0,0,28.69H225.53a55.38,55.38,0,0,0,0-28.69ZM84,364.2V335.51h43a7.17,7.17,0,1,0,0-14.34H84V263.79h7.17a7.17,7.17,0,0,0,0-14.34H84V236.31a109,109,0,0,0,91.58,21.33,7.17,7.17,0,0,0-3.1-14,94.05,94.05,0,0,1-20.35,2.23,97.84,97.84,0,0,1-96.82-98.62,97.84,97.84,0,0,1,96.82-98.61,98.86,98.86,0,0,1,90,135,7.17,7.17,0,1,0,13.33,5.28,111.15,111.15,0,0,0,7.43-32.65H284.8a14.34,14.34,0,0,1,14.34,14.35v208H219.65a57.24,57.24,0,0,0-99.22,0H98.32A14.34,14.34,0,0,1,84,364.2Zm28.69,57.38a14.35,14.35,0,1,1,0-28.69h1.88a55.6,55.6,0,0,0,0,28.69ZM127,407.24a43,43,0,1,1,43,43A43,43,0,0,1,127,407.24Zm80.86,43a57.5,57.5,0,0,0,11.78-14.35H315a57.93,57.93,0,0,0,11.78,14.35Zm113.69-43a43,43,0,1,1,43,43A43,43,0,0,1,321.56,407.24Zm116.82,10.13a14.24,14.24,0,0,1-10.14,4.21h-8.16a55.38,55.38,0,0,0,0-28.69h8.16a14.35,14.35,0,0,1,10.14,24.48Zm11.38-38.82H414.2a57.24,57.24,0,0,0-99.22,0h-1.49V321.17h78.89a7.17,7.17,0,0,0,0-14.34H313.49V199.24h76.6a21.53,21.53,0,0,1,18.65,10.88l2,3.47H342.18a14.34,14.34,0,0,0-14.35,14.34v43a14.34,14.34,0,0,0,14.35,14.35H451.76l4.24,7.41a7.14,7.14,0,0,1,.93,3.58v24.87H435.41a14.34,14.34,0,0,0-14.34,14.34v14.35a14.34,14.34,0,0,0,14.34,14.34h21.52v7.17A7.17,7.17,0,0,1,449.76,378.55Zm7.17-28.69H435.41V335.51h21.52Z"/><path class="cls-1" d="M241.77,357h28.68a7.17,7.17,0,1,0,0-14.34H241.77a7.17,7.17,0,1,0,0,14.34Z"/><path class="cls-1" d="M62.46,450.27H48.12a7.17,7.17,0,1,0,0,14.34H62.46a7.17,7.17,0,0,0,0-14.34Z"/><path class="cls-1" d="M270.45,184.9h7.18a7.17,7.17,0,1,0,0-14.34h-7.18a7.17,7.17,0,0,0,0,14.34Z"/><path class="cls-1" d="M105,156.49c8-7.8,14.86-14.55,14.86-22.08a23.37,23.37,0,0,0-21.52-24.82A23.37,23.37,0,0,0,76.8,134.41a7.18,7.18,0,0,0,14.35,0c0-5.68,3.28-10.48,7.17-10.48s7.18,4.8,7.18,10.18a55.11,55.11,0,0,1-10.56,12.13C86,155,76.8,164,76.8,174.14A7.18,7.18,0,0,0,84,181.31h28.69a7.17,7.17,0,0,0,0-14.34H95A133.21,133.21,0,0,1,105,156.49Z"/><path class="cls-1" d="M170,152.62v-7.17a7.17,7.17,0,1,0-14.34,0v7.17H144.14L155.33,119a7.18,7.18,0,1,0-13.63-4.53l-14.35,43a7.18,7.18,0,0,0,6.83,9.44H155.7v7.17a7.17,7.17,0,1,0,14.34,0V167a7.18,7.18,0,1,0,0-14.35Z"/><path class="cls-1" d="M198.73,181.31a7.17,7.17,0,0,0,7.17-7.17V167a7.18,7.18,0,0,1,14.35,0v7.17a7.17,7.17,0,0,0,14.34,0V167a21.31,21.31,0,0,0-28.69-20.2V131.11a7.17,7.17,0,1,0-14.34,0v43A7.17,7.17,0,0,0,198.73,181.31Z"/></svg>