<svg id="Capa_1" data-name="Capa 1" xmlns="http://www.w3.org/2000/svg" viewBox="0 0 512 512"><defs><style>.cls-1{fill:#17212b;}</style></defs><path class="cls-1" d="M116.4,331.46A199.7,199.7,0,0,0,198.21,352l1.74.06.54,1.67c17.69,54.25,76.48,92.15,143,92.15a168.85,168.85,0,0,0,75.63-17.56l.81-.41,70,16.46L470.58,385l.71-1c13.43-19.26,20.52-41.32,20.52-63.79,0-56.25-44.63-106.05-108.53-121.09l-1.83-.43-.09-1.88c-1.94-38.28-21-74.07-53.74-100.79-32.93-26.89-76.18-41.69-121.77-41.69-96.87,0-175.69,66.8-175.69,148.92,0,26.61,8.39,52.73,24.26,75.54l.71,1L32.07,350.68l83.52-19.63ZM380.75,217.52l2.78.79c51.4,14.68,85.94,55.63,85.94,101.91,0,20.91-7.05,41.18-20.37,58.61l-2.56,3.34L458.19,418l-42-9.88-4.32,2.39a141.67,141.67,0,0,1-68.39,17.19c-54.15,0-102.13-29.37-119.41-73.08l-1.21-3.08,3.3-.33c39.09-3.83,76-19,104-42.81s45.72-55,50.2-88ZM76.66,273.7c-15.8-21-24.15-45.36-24.15-70.44,0-72.06,68.78-130.69,153.34-130.69S359.19,131.2,359.19,203.26,290.4,334,205.85,334c-29.28,0-57.74-7.05-82.32-20.4l-4.29-2.33-55.46,13L79.16,277Z"/><rect class="cls-1" x="194.68" y="265.89" width="22.34" height="22.34"/><path class="cls-1" d="M258,153.11a52.18,52.18,0,0,0-104.31-2.5h22.39a29.84,29.84,0,0,1,59.58,2.5,29.53,29.53,0,0,1-9.71,22l-31.3,28.65v29.77H217V213.62l24-22A52.32,52.32,0,0,0,258,153.11Z"/></svg>