<?xml version="1.0" encoding="utf-8"?>
<!-- Svg Vector Icons : http://www.onlinewebfonts.com/icon -->
<!DOCTYPE svg PUBLIC "-//W3C//DTD SVG 1.1//EN" "http://www.w3.org/Graphics/SVG/1.1/DTD/svg11.dtd">
<svg version="1.1" xmlns="http://www.w3.org/2000/svg" xmlns:xlink="http://www.w3.org/1999/xlink" x="0px" y="0px" viewBox="0 0 1000 1000" enable-background="new 0 0 1000 1000" xml:space="preserve">
<metadata> Svg Vector Icons : http://www.onlinewebfonts.com/icon </metadata>
<g><path d="M903.3,25.6L903.3,25.6H96.5"/><path d="M424.7,584.9c-97-91.1-189.7-196.5-145.3-238.2c63.5-59.7,118.9-96.5,6.3-228.1C173.2-13,98.1,88.1,36.5,145.9c-71,66.7-3.7,315.4,258,561.3c261.8,245.8,526.7,309,597.7,242.3c61.6-57.8,169.2-128.3,29.1-234c-140.1-105.8-179.3-53.8-242.9,5.9C634,762.9,521.7,675.9,424.7,584.9L424.7,584.9L424.7,584.9L424.7,584.9L424.7,584.9z"/></g>
</svg>